<?xml version="1.0" encoding="iso-8859-1"?>
<!-- Generator: Adobe Illustrator 19.0.0, SVG Export Plug-In . SVG Version: 6.00 Build 0)  -->
<svg version="1.1" id="Layer_1" xmlns="http://www.w3.org/2000/svg" xmlns:xlink="http://www.w3.org/1999/xlink" x="0px" y="0px"
	 viewBox="0 0 512 512" style="enable-background:new 0 0 512 512;" xml:space="preserve">
<g>
	<g>
		<path d="M501.333,42.976c-21.184,0-40.213,14.016-47.403,34.859c-5.269,15.317-14.677,33.387-25.579,54.293
			c-5.291,10.155-11.051,21.44-16.917,33.28c-21.013-42.923-56.939-81.707-73.216-97.984C315.627,44.832,278.229,37.984,256,52.427
			c-22.229-14.443-59.627-7.595-82.219,14.976c-16.363,16.363-52.651,55.488-73.259,97.92c-5.867-11.84-11.605-23.061-16.875-33.216
			c-10.901-20.885-20.309-38.955-25.579-54.293C50.88,56.992,31.851,42.976,10.667,42.976C4.779,42.976,0,47.755,0,53.643
			c0,39.232,61.952,218.923,86.336,271.168c23.061,49.408,83.883,128.107,156.267,142.208c1.237,0.32,7.573,2.603,12.395,1.856
			c0.341,0.021,1.6,0.085,1.92,0.085c4.843,0,11.243-1.643,11.797-1.792c73.067-14.251,133.888-92.949,156.949-142.357
			C450.048,272.544,512,92.875,512,53.643C512,47.755,507.221,42.976,501.333,42.976z M375.232,228.875
			c-0.171,0.277-0.128,0.619-0.277,0.875c-26.304,29.568-66.389,45.568-118.571,47.488c-53.099-1.92-93.291-18.005-119.573-47.723
			c-0.981-26.581,4.8-58.752,49.301-81.024c6.976-3.499,17.941-5.888,29.525-8.448c14.229-3.115,28.864-6.336,40.363-12.373
			c11.52,6.037,26.155,9.237,40.363,12.373c11.584,2.539,22.549,4.949,29.525,8.448
			C370.048,170.571,376.107,202.443,375.232,228.875z"/>
	</g>
</g>
<g>
</g>
<g>
</g>
<g>
</g>
<g>
</g>
<g>
</g>
<g>
</g>
<g>
</g>
<g>
</g>
<g>
</g>
<g>
</g>
<g>
</g>
<g>
</g>
<g>
</g>
<g>
</g>
<g>
</g>
</svg>
