<?xml version="1.0" encoding="iso-8859-1"?>
<!-- Generator: Adobe Illustrator 19.0.0, SVG Export Plug-In . SVG Version: 6.00 Build 0)  -->
<svg version="1.1" id="Layer_1" xmlns="http://www.w3.org/2000/svg" xmlns:xlink="http://www.w3.org/1999/xlink" x="0px" y="0px"
	 viewBox="0 0 512 512" style="enable-background:new 0 0 512 512;" xml:space="preserve">
<g>
	<g>
		<path d="M402.51,309.064l-44.984-22.676c1.375-2.503,2.698-5.072,3.961-7.721c7.918-16.61,13.903-35.455,17.516-54.81
			c6.603,2.415,13.729,3.735,21.158,3.735c34.049,0,61.751-27.701,61.751-61.75c0-28.281-19.118-52.166-45.102-59.452
			c2.184-6.314,3.387-13.083,3.387-20.13c0-34.05-27.701-61.751-61.751-61.751c-10.561,0-20.507,2.669-29.208,7.361V0H182.762
			v31.871c-8.702-4.691-18.649-7.361-29.208-7.361c-34.05,0-61.751,27.701-61.751,61.751c0,7.048,1.203,13.816,3.387,20.13
			c-25.985,7.286-45.103,31.171-45.103,59.452c0,34.049,27.701,61.751,61.751,61.751c7.431,0,14.557-1.32,21.161-3.737
			c3.611,19.35,9.589,38.186,17.513,54.811c1.262,2.649,2.587,5.218,3.961,7.721l-44.984,22.675
			c-28.241,14.237-45.786,42.727-45.786,74.355V512h384.593V383.419C448.297,351.792,430.752,323.301,402.51,309.064z
			 M400.161,137.484c15.637,0,28.359,12.721,28.359,28.359c0,15.637-12.722,28.359-28.359,28.359
			c-15.638,0-28.359-12.722-28.359-28.359c0-9.826,5.024-18.498,12.636-23.589c1.792-0.835,3.536-1.753,5.23-2.75
			C392.916,138.205,396.454,137.484,400.161,137.484z M358.445,57.902c15.638,0,28.359,12.722,28.359,28.359
			c0,9.826-5.024,18.498-12.636,23.589c-1.792,0.835-3.536,1.753-5.23,2.75c-3.248,1.299-6.786,2.02-10.493,2.02
			c-15.637,0-28.359-12.722-28.359-28.359S342.808,57.902,358.445,57.902z M272.675,33.391h23.17v29.115h-23.17V33.391z
			 M216.154,33.391h23.129v29.115h-23.129V33.391z M214.547,95.898h82.905c3.771,23.96,21.373,43.373,44.346,49.815
			c-2.184,6.314-3.387,13.083-3.387,20.13c0,12.585,3.793,24.298,10.285,34.07c-2.16,22.62-8.252,45.301-17.348,64.386
			c-15.529,32.579-40.88,49.096-75.346,49.096s-59.817-16.519-75.346-49.096c-9.106-19.105-15.186-41.77-17.345-64.391
			c6.489-9.771,10.281-21.482,10.281-34.066c-0.003-7.048-1.206-13.816-3.39-20.13C193.175,139.271,210.775,119.858,214.547,95.898z
			 M314.313,331.961l-58.317,64.779l-58.323-64.787c16.995,9.842,36.596,14.835,58.327,14.835
			C277.725,346.788,297.321,341.798,314.313,331.961z M111.838,194.203c-15.637,0-28.359-12.722-28.359-28.359
			c0-15.638,12.722-28.359,28.359-28.359c3.706,0,7.245,0.722,10.493,2.02c1.694,0.997,3.438,1.916,5.23,2.75
			c7.612,5.091,12.636,13.763,12.636,23.589C140.197,181.481,127.475,194.203,111.838,194.203z M153.554,114.62
			c-3.706,0-7.245-0.722-10.493-2.02c-1.694-0.997-3.438-1.916-5.23-2.75c-7.612-5.091-12.636-13.763-12.636-23.589
			c-0.001-15.638,12.721-28.359,28.359-28.359c15.637,0,28.359,12.722,28.359,28.359S169.191,114.62,153.554,114.62z
			 M97.094,478.609v-95.19c0-18.945,10.508-36.01,27.425-44.537l23.704-11.948l136.543,151.676H97.094z M414.906,478.609h-0.001
			h-85.209l-51.234-56.913l85.31-94.765l23.709,11.951c16.916,8.527,27.425,25.592,27.425,44.537V478.609z"/>
	</g>
</g>
<g>
	<g>
		<circle cx="216.152" cy="195.818" r="16.696"/>
	</g>
</g>
<g>
	<g>
		<circle cx="295.846" cy="195.818" r="16.696"/>
	</g>
</g>
<g>
</g>
<g>
</g>
<g>
</g>
<g>
</g>
<g>
</g>
<g>
</g>
<g>
</g>
<g>
</g>
<g>
</g>
<g>
</g>
<g>
</g>
<g>
</g>
<g>
</g>
<g>
</g>
<g>
</g>
</svg>
