<?xml version="1.0" encoding="iso-8859-1"?>
<!-- Generator: Adobe Illustrator 19.0.0, SVG Export Plug-In . SVG Version: 6.00 Build 0)  -->
<svg version="1.1" id="Layer_1" xmlns="http://www.w3.org/2000/svg" xmlns:xlink="http://www.w3.org/1999/xlink" x="0px" y="0px"
	 viewBox="0 0 512 512" style="enable-background:new 0 0 512 512;" xml:space="preserve">
<g>
	<g>
		<polygon points="167.991,82.173 56.049,82.173 29.501,132.741 192.011,132.741 		"/>
	</g>
</g>
<g>
	<g>
		<polygon points="112.039,461.432 16.625,461.432 15.611,512 119.262,512 		"/>
	</g>
</g>
<g>
	<g>
		<path d="M27.386,170.667l-9.894,252.839h89.128L89.326,302.45l-6.184-43.29h17.081c4.392-13.177,10.724-25.599,18.919-37.05
			c10.263-14.342,23.199-26.836,38.451-37.133c8.139-5.494,16.814-10.255,25.914-14.311H27.386z"/>
	</g>
</g>
<g>
	<g>
		<rect x="62.769" width="98.607" height="44.247"/>
	</g>
</g>
<g>
	<g>
		<path d="M405.158,196.734l-13.239-16.519l-14.968,14.969c-8.782,8.782-15.58,11.999-24.06,11.999
			c-7.004,0-15.155-2.191-26.53-5.249c-16.197-4.356-36.354-9.776-62.421-9.776c-56.45,0-103.064,26.184-122.829,67.003h284.941
			C429.332,239.148,422.324,218.152,405.158,196.734z"/>
	</g>
</g>
<g>
	<g>
		<path d="M126.87,297.086L157.573,512H405.38l25.284-176.988h27.8v31.605h37.926v-69.531H126.87z M332.043,423.506H230.908V385.58
			h101.136V423.506z"/>
	</g>
</g>
<g>
</g>
<g>
</g>
<g>
</g>
<g>
</g>
<g>
</g>
<g>
</g>
<g>
</g>
<g>
</g>
<g>
</g>
<g>
</g>
<g>
</g>
<g>
</g>
<g>
</g>
<g>
</g>
<g>
</g>
</svg>
