<?xml version='1.0' encoding='iso-8859-1'?>
<!DOCTYPE svg PUBLIC '-//W3C//DTD SVG 1.1//EN' 'http://www.w3.org/Graphics/SVG/1.1/DTD/svg11.dtd'>
<svg version="1.1" xmlns="http://www.w3.org/2000/svg" viewBox="0 0 440.972 440.972" xmlns:xlink="http://www.w3.org/1999/xlink" enable-background="new 0 0 440.972 440.972">
  <path d="m430.717,85.186l-27.17-27.17c-3.905-3.905-10.237-3.905-14.143,0l-211.69,211.69-6.448-6.448 211.691-211.691c1.875-1.875 2.929-4.419 2.929-7.071s-1.054-5.196-2.929-7.071l-27.17-27.17c-6.613-6.613-15.406-10.255-24.758-10.255s-18.145,3.642-24.757,10.255l-165.707,165.707c-11.336,11.336-17.58,26.408-17.58,42.44 0,10.206 2.54,20.018 7.303,28.729l-97.661,97.661c-15.09,15.091-17.171,38.326-6.268,55.678l-23.43,23.43c-3.905,3.905-3.906,10.237 0,14.142 1.953,1.953 4.512,2.929 7.071,2.929 2.559,0 5.119-0.977 7.071-2.929l23.431-23.43c7.279,4.573 15.587,6.873 23.902,6.873 11.507,0 23.015-4.38 31.776-13.141l97.661-97.662c8.712,4.764 18.524,7.303 28.73,7.303 16.031,0 31.104-6.243 42.44-17.579l165.707-165.707c6.613-6.613 10.255-15.406 10.255-24.758-0.001-9.35-3.643-18.143-10.256-24.755zm-34.241-5.957l4.906,4.906-204.504,204.504-5.022-4.79 204.62-204.62zm-239.353,169.887l-4.793-5.019 204.507-204.507 4.906,4.906-204.62,204.62zm-2.416-59.011l165.708-165.708c2.835-2.835 6.605-4.397 10.614-4.397 4.01,0 7.78,1.562 10.615,4.397l4.586,4.586-201.416,201.418c-1.2-3.833-1.828-7.867-1.828-11.999-0.001-10.689 4.162-20.739 11.721-28.297zm-107.937,168.83l95.944-95.944 10.562,10.562-56.789,56.789-55.309,55.309c-3.482-8.943-1.618-19.506 5.592-26.716zm35.267,35.268c-7.209,7.21-17.773,9.075-26.715,5.591l112.097-112.098c0,0 3.222,3.223 3.224,3.225l7.338,7.338-95.944,95.944zm334.538-273.645l-165.707,165.707c-10.88,10.88-26.514,14.164-40.274,9.871l201.395-201.394 4.586,4.586c2.835,2.835 4.397,6.605 4.397,10.615s-1.561,7.78-4.397,10.615z"/>
</svg>
